<svg width="21" height="19" viewBox="0 0 21 19" fill="none" xmlns="http://www.w3.org/2000/svg">
<path d="M18.9578 2.09133C18.4691 1.58683 17.8889 1.18663 17.2503 0.913583C16.6117 0.640537 15.9272 0.5 15.2359 0.5C14.5446 0.5 13.8601 0.640537 13.2215 0.913583C12.5829 1.18663 12.0026 1.58683 11.5139 2.09133L10.4997 3.13785L9.48554 2.09133C8.49842 1.07276 7.1596 0.500528 5.76361 0.500528C4.36761 0.500528 3.02879 1.07276 2.04168 2.09133C1.05456 3.1099 0.5 4.49139 0.5 5.93187C0.5 7.37235 1.05456 8.75383 2.04168 9.7724L10.4997 18.5L18.9578 9.7724C19.4467 9.26814 19.8346 8.66942 20.0992 8.01045C20.3638 7.35148 20.5 6.64517 20.5 5.93187C20.5 5.21857 20.3638 4.51225 20.0992 3.85328C19.8346 3.19431 19.4467 2.59559 18.9578 2.09133Z" fill="#21D393" stroke="#1A1A1A" stroke-linecap="round" stroke-linejoin="round"/>
</svg>
